<svg xmlns="http://www.w3.org/2000/svg" id="mermaid-1579867443335" width="100%" height="100%" viewBox="-50 -10 850 807" style="max-width:850px"><style>#mermaid-1579867443335 .actor{stroke:#999;fill:#eee}#mermaid-1579867443335 text.actor{fill:#333;stroke:none}#mermaid-1579867443335 .actor-line{stroke:#666}#mermaid-1579867443335 .messageLine0{marker-end:&quot;url(#arrowhead)&quot;}#mermaid-1579867443335 .messageLine0,#mermaid-1579867443335 .messageLine1{stroke-width:1.5;stroke-dasharray:&quot;2 2&quot;;stroke:#333}#mermaid-1579867443335 #arrowhead{fill:#333}#mermaid-1579867443335 #crosshead path{fill:#333!important;stroke:#333!important}#mermaid-1579867443335 .messageText{fill:#333;stroke:none}#mermaid-1579867443335 .labelBox{stroke:#999;fill:#eee}#mermaid-1579867443335 .labelText,#mermaid-1579867443335 .loopText{fill:#fff;stroke:none}#mermaid-1579867443335 .loopLine{stroke-width:2;stroke-dasharray:&quot;2 2&quot;;marker-end:&quot;url(#arrowhead)&quot;;stroke:#999}#mermaid-1579867443335 .note{stroke:#770;fill:#ffa}#mermaid-1579867443335 .noteText{fill:#000;stroke:none;font-family:trebuchet ms,verdana,arial;font-size:14px}</style><style>#mermaid-1579867443335{color:#000;font:400 16px &quot;Times New Roman&quot;}</style><g><line id="actor0" x1="75" x2="75" y1="5" y2="796" stroke="#999" stroke-width=".5" class="actor-line"/><rect width="150" height="65" x="0" y="0" fill="#eaeaea" stroke="#666" class="actor" rx="3" ry="3"/><text x="75" y="32.5" alignment-baseline="central" class="actor" dominant-baseline="central" style="text-anchor:middle"><tspan x="75" dy="0">ServerBuilder</tspan></text></g><g><line id="actor1" x1="275" x2="275" y1="5" y2="796" stroke="#999" stroke-width=".5" class="actor-line"/><rect width="150" height="65" x="200" y="0" fill="#eaeaea" stroke="#666" class="actor" rx="3" ry="3"/><text x="275" y="32.5" alignment-baseline="central" class="actor" dominant-baseline="central" style="text-anchor:middle"><tspan x="275" dy="0">mio</tspan></text></g><g><line id="actor2" x1="475" x2="475" y1="5" y2="796" stroke="#999" stroke-width=".5" class="actor-line"/><rect width="150" height="65" x="400" y="0" fill="#eaeaea" stroke="#666" class="actor" rx="3" ry="3"/><text x="475" y="32.5" alignment-baseline="central" class="actor" dominant-baseline="central" style="text-anchor:middle"><tspan x="475" dy="0">Accept</tspan></text></g><g><line id="actor3" x1="675" x2="675" y1="5" y2="796" stroke="#999" stroke-width=".5" class="actor-line"/><rect width="150" height="65" x="600" y="0" fill="#eaeaea" stroke="#666" class="actor" rx="3" ry="3"/><text x="675" y="32.5" alignment-baseline="central" class="actor" dominant-baseline="central" style="text-anchor:middle"><tspan x="675" dy="0">WorkerClient</tspan></text></g><defs><marker id="arrowhead" markerHeight="4" markerWidth="6" orient="auto" refX="5" refY="2"><path d="M 0,0 V 4 L6,2 Z"/></marker></defs><defs><marker id="crosshead" markerHeight="8" markerWidth="15" orient="auto" refX="16" refY="4"><path fill="#000" stroke="#000" stroke-width="1" d="M 9,2 V 6 L16,4 Z" style="stroke-dasharray:0,0"/><path fill="none" stroke="#000" stroke-width="1" d="M 0,1 L 6,7 M 6,1 L 0,7" style="stroke-dasharray:0,0"/></marker></defs><g><text x="275" y="93" class="messageText" style="text-anchor:middle">start(socks, workers)</text><line x1="75" x2="475" y1="100" y2="100" stroke="#000" stroke-width="2" marker-end="url(#arrowhead)" class="messageLine0" style="fill:none"/></g><g><text x="375" y="153" class="messageText" style="text-anchor:middle">mio::Poll::poll()</text><line x1="475" x2="275" y1="160" y2="160" stroke="#000" stroke-width="2" marker-end="url(#arrowhead)" class="messageLine0" style="fill:none"/></g><g><text x="475" y="213" class="messageText" style="text-anchor:middle">process_*</text><path stroke="#000" stroke-width="2" marker-end="url(#arrowhead)" d="M 475,220 C 535,210 535,250 475,240" class="messageLine1" style="stroke-dasharray:3,3;fill:none"/></g><g><text x="475" y="298" class="messageText" style="text-anchor:middle">backpressure</text><path stroke="#000" stroke-width="2" marker-end="url(#arrowhead)" d="M 475,305 C 535,295 535,335 475,325" class="messageLine0" style="fill:none"/></g><g><text x="475" y="383" class="messageText" style="text-anchor:middle">accept_one(Conn)</text><path stroke="#000" stroke-width="2" marker-end="url(#arrowhead)" d="M 475,390 C 535,380 535,420 475,410" class="messageLine1" style="stroke-dasharray:3,3;fill:none"/></g><g><text x="575" y="473" class="messageText" style="text-anchor:middle">send(Conn)</text><line x1="475" x2="675" y1="480" y2="480" stroke="#000" stroke-width="2" marker-end="url(#arrowhead)" class="messageLine0" style="fill:none"/></g><g><rect width="150" height="36" x="400" y="515" fill="#EDF2AE" stroke="#666" class="note" rx="0" ry="0"/><text x="396" y="539" fill="#000" class="noteText"><tspan x="416" fill="#000">break loop</tspan></text></g><g><text x="275" y="599" class="messageText" style="text-anchor:middle">worker_faulted(idx)</text><line x1="475" x2="75" y1="606" y2="606" stroke="#000" stroke-width="2" marker-end="url(#arrowhead)" class="messageLine0" style="fill:none"/></g><g><text x="475" y="634" class="messageText" style="text-anchor:middle">remove worker, get next worker</text><path stroke="#000" stroke-width="2" marker-end="url(#arrowhead)" d="M 475,641 C 535,631 535,671 475,661" class="messageLine0" style="fill:none"/></g><g><line x1="65" x2="587.586" y1="490" y2="490" class="loopLine"/><line x1="587.586" x2="587.586" y1="490" y2="681" class="loopLine"/><line x1="65" x2="587.586" y1="681" y2="681" class="loopLine"/><line x1="65" x2="65" y1="490" y2="681" class="loopLine"/><line x1="65" x2="587.586" y1="561" y2="561" class="loopLine" style="stroke-dasharray:3,3"/><polygon points="65 490 115 490 115 503 106.6 510 65 510" class="labelBox"/><text x="72.5" y="505" fill="#000" class="labelText"><tspan x="72.5" fill="#000">alt</tspan></text><text x="326.293" y="505" fill="#000" class="loopText" style="text-anchor:middle"><tspan x="326.293" fill="#000">[ send(Conn) -&gt; Ok(_) ]</tspan></text><text x="326.293" y="576" fill="#000" class="loopText" style="text-anchor:middle"><tspan x="326.293" fill="#000">[ send(Conn) -&gt; Err(_) ]</tspan></text></g><g><line x1="55" x2="685" y1="430" y2="430" class="loopLine"/><line x1="685" x2="685" y1="430" y2="691" class="loopLine"/><line x1="55" x2="685" y1="691" y2="691" class="loopLine"/><line x1="55" x2="55" y1="430" y2="691" class="loopLine"/><polygon points="55 430 105 430 105 443 96.6 450 55 450" class="labelBox"/><text x="62.5" y="445" fill="#000" class="labelText"><tspan x="62.5" fill="#000">loop</tspan></text><text x="370" y="445" fill="#000" class="loopText" style="text-anchor:middle"><tspan x="370" fill="#000">[ while exist WorkerClient ]</tspan></text></g><g><line x1="45" x2="695" y1="170" y2="170" class="loopLine"/><line x1="695" x2="695" y1="170" y2="701" class="loopLine"/><line x1="45" x2="695" y1="701" y2="701" class="loopLine"/><line x1="45" x2="45" y1="170" y2="701" class="loopLine"/><line x1="45" x2="695" y1="260" y2="260" class="loopLine" style="stroke-dasharray:3,3"/><line x1="45" x2="695" y1="345" y2="345" class="loopLine" style="stroke-dasharray:3,3"/><polygon points="45 170 95 170 95 183 86.6 190 45 190" class="labelBox"/><text x="52.5" y="185" fill="#000" class="labelText"><tspan x="52.5" fill="#000">alt</tspan></text><text x="370" y="185" fill="#000" class="loopText" style="text-anchor:middle"><tspan x="370" fill="#000">[ poll() -&gt; TIMER | CMD ]</tspan></text><text x="370" y="275" fill="#000" class="loopText" style="text-anchor:middle"><tspan x="370" fill="#000">[ poll() -&gt; NOTIFY ]</tspan></text><text x="370" y="360" fill="#000" class="loopText" style="text-anchor:middle"><tspan x="370" fill="#000">[ poll() -&gt; OTHER(token) ]</tspan></text></g><g><line x1="35" x2="705" y1="110" y2="110" class="loopLine"/><line x1="705" x2="705" y1="110" y2="711" class="loopLine"/><line x1="35" x2="705" y1="711" y2="711" class="loopLine"/><line x1="35" x2="35" y1="110" y2="711" class="loopLine"/><polygon points="35 110 85 110 85 123 76.6 130 35 130" class="labelBox"/><text x="42.5" y="125" fill="#000" class="labelText"><tspan x="42.5" fill="#000">loop</tspan></text><text x="370" y="125" fill="#000" class="loopText" style="text-anchor:middle"><tspan x="370" fill="#000">[ Continuous: poll ]</tspan></text></g><g><rect width="150" height="65" x="0" y="731" fill="#eaeaea" stroke="#666" class="actor" rx="3" ry="3"/><text x="75" y="763.5" alignment-baseline="central" class="actor" dominant-baseline="central" style="text-anchor:middle"><tspan x="75" dy="0">ServerBuilder</tspan></text></g><g><rect width="150" height="65" x="200" y="731" fill="#eaeaea" stroke="#666" class="actor" rx="3" ry="3"/><text x="275" y="763.5" alignment-baseline="central" class="actor" dominant-baseline="central" style="text-anchor:middle"><tspan x="275" dy="0">mio</tspan></text></g><g><rect width="150" height="65" x="400" y="731" fill="#eaeaea" stroke="#666" class="actor" rx="3" ry="3"/><text x="475" y="763.5" alignment-baseline="central" class="actor" dominant-baseline="central" style="text-anchor:middle"><tspan x="475" dy="0">Accept</tspan></text></g><g><rect width="150" height="65" x="600" y="731" fill="#eaeaea" stroke="#666" class="actor" rx="3" ry="3"/><text x="675" y="763.5" alignment-baseline="central" class="actor" dominant-baseline="central" style="text-anchor:middle"><tspan x="675" dy="0">WorkerClient</tspan></text></g></svg>