<svg xmlns="http://www.w3.org/2000/svg" id="mermaid-1579870223874" width="100%" height="100%" viewBox="-50 -10 1250 743" style="max-width:1250px"><style>#mermaid-1579870223874 .actor{stroke:#999;fill:#eee}#mermaid-1579870223874 text.actor{fill:#333;stroke:none}#mermaid-1579870223874 .actor-line{stroke:#666}#mermaid-1579870223874 .messageLine0{marker-end:&quot;url(#arrowhead)&quot;}#mermaid-1579870223874 .messageLine0,#mermaid-1579870223874 .messageLine1{stroke-width:1.5;stroke-dasharray:&quot;2 2&quot;;stroke:#333}#mermaid-1579870223874 #arrowhead{fill:#333}#mermaid-1579870223874 #crosshead path{fill:#333!important;stroke:#333!important}#mermaid-1579870223874 .messageText{fill:#333;stroke:none}#mermaid-1579870223874 .labelBox{stroke:#999;fill:#eee}#mermaid-1579870223874 .labelText,#mermaid-1579870223874 .loopText{fill:#fff;stroke:none}#mermaid-1579870223874 .loopLine{stroke-width:2;stroke-dasharray:&quot;2 2&quot;;marker-end:&quot;url(#arrowhead)&quot;;stroke:#999}#mermaid-1579870223874 .note{stroke:#770;fill:#ffa}#mermaid-1579870223874 .noteText{fill:#000;stroke:none;font-family:trebuchet ms,verdana,arial;font-size:14px}</style><style>#mermaid-1579870223874{color:#000;font:400 16px &quot;Times New Roman&quot;}</style><g><line id="actor0" x1="75" x2="75" y1="5" y2="732" stroke="#999" stroke-width=".5" class="actor-line"/><rect width="150" height="65" x="0" y="0" fill="#eaeaea" stroke="#666" class="actor" rx="3" ry="3"/><text x="75" y="32.5" alignment-baseline="central" class="actor" dominant-baseline="central" style="text-anchor:middle"><tspan x="75" dy="0">HttpServer</tspan></text></g><g><line id="actor1" x1="275" x2="275" y1="5" y2="732" stroke="#999" stroke-width=".5" class="actor-line"/><rect width="150" height="65" x="200" y="0" fill="#eaeaea" stroke="#666" class="actor" rx="3" ry="3"/><text x="275" y="32.5" alignment-baseline="central" class="actor" dominant-baseline="central" style="text-anchor:middle"><tspan x="275" dy="0">HttpServiceHandler</tspan></text></g><g><line id="actor2" x1="475" x2="475" y1="5" y2="732" stroke="#999" stroke-width=".5" class="actor-line"/><rect width="150" height="65" x="400" y="0" fill="#eaeaea" stroke="#666" class="actor" rx="3" ry="3"/><text x="475" y="32.5" alignment-baseline="central" class="actor" dominant-baseline="central" style="text-anchor:middle"><tspan x="475" dy="0">HSHR</tspan></text></g><g><line id="actor3" x1="675" x2="675" y1="5" y2="732" stroke="#999" stroke-width=".5" class="actor-line"/><rect width="150" height="65" x="600" y="0" fill="#eaeaea" stroke="#666" class="actor" rx="3" ry="3"/><text x="675" y="32.5" alignment-baseline="central" class="actor" dominant-baseline="central" style="text-anchor:middle"><tspan x="675" dy="0">State</tspan></text></g><g><line id="actor4" x1="875" x2="875" y1="5" y2="732" stroke="#999" stroke-width=".5" class="actor-line"/><rect width="150" height="65" x="800" y="0" fill="#eaeaea" stroke="#666" class="actor" rx="3" ry="3"/><text x="875" y="32.5" alignment-baseline="central" class="actor" dominant-baseline="central" style="text-anchor:middle"><tspan x="875" dy="0">Dispatcher</tspan></text></g><g><line id="actor5" x1="1075" x2="1075" y1="5" y2="732" stroke="#999" stroke-width=".5" class="actor-line"/><rect width="150" height="65" x="1000" y="0" fill="#eaeaea" stroke="#666" class="actor" rx="3" ry="3"/><text x="1075" y="32.5" alignment-baseline="central" class="actor" dominant-baseline="central" style="text-anchor:middle"><tspan x="1075" dy="0">Tokio</tspan></text></g><defs><marker id="arrowhead" markerHeight="4" markerWidth="6" orient="auto" refX="5" refY="2"><path d="M 0,0 V 4 L6,2 Z"/></marker></defs><defs><marker id="crosshead" markerHeight="8" markerWidth="15" orient="auto" refX="16" refY="4"><path fill="#000" stroke="#000" stroke-width="1" d="M 9,2 V 6 L16,4 Z" style="stroke-dasharray:0,0"/><path fill="none" stroke="#000" stroke-width="1" d="M 0,1 L 6,7 M 6,1 L 0,7" style="stroke-dasharray:0,0"/></marker></defs><g><rect width="250" height="36" x="450" y="75" fill="#EDF2AE" stroke="#666" class="note" rx="0" ry="0"/><text x="446" y="99" fill="#000" class="noteText"><tspan x="466" fill="#000">HttpServiceHandlerResponse</tspan></text></g><g><text x="175" y="139" class="messageText" style="text-anchor:middle">eventually build...</text><line x1="75" x2="275" y1="146" y2="146" stroke="#000" stroke-width="2" marker-end="url(#arrowhead)" class="messageLine1" style="stroke-dasharray:3,3;fill:none"/></g><g><text x="575" y="199" class="messageText" style="text-anchor:middle">H1::Dispatcher::new()</text><line x1="275" x2="875" y1="206" y2="206" stroke="#000" stroke-width="2" marker-end="url(#arrowhead)" class="messageLine0" style="fill:none"/></g><g><text x="475" y="234" class="messageText" style="text-anchor:middle">State::H1(Dispatcher)</text><line x1="275" x2="675" y1="241" y2="241" stroke="#000" stroke-width="2" marker-end="url(#arrowhead)" class="messageLine0" style="fill:none"/></g><g><text x="475" y="289" class="messageText" style="text-anchor:middle">State::H2Handshake</text><line x1="275" x2="675" y1="296" y2="296" stroke="#000" stroke-width="2" marker-end="url(#arrowhead)" class="messageLine0" style="fill:none"/></g><g><line x1="265" x2="885" y1="156" y2="156" class="loopLine"/><line x1="885" x2="885" y1="156" y2="306" class="loopLine"/><line x1="265" x2="885" y1="306" y2="306" class="loopLine"/><line x1="265" x2="265" y1="156" y2="306" class="loopLine"/><line x1="265" x2="885" y1="251" y2="251" class="loopLine" style="stroke-dasharray:3,3"/><polygon points="265 156 315 156 315 169 306.6 176 265 176" class="labelBox"/><text x="272.5" y="171" fill="#000" class="labelText"><tspan x="272.5" fill="#000">alt</tspan></text><text x="575" y="171" fill="#000" class="loopText" style="text-anchor:middle"><tspan x="575" fill="#000">[ Protocol::HTTP1 ]</tspan></text><text x="575" y="266" fill="#000" class="loopText" style="text-anchor:middle"><tspan x="575" fill="#000">[ Protocol::HTTP2 ]</tspan></text></g><g><text x="375" y="334" class="messageText" style="text-anchor:middle">HttpServiceHandlerResponse::new(State)</text><line x1="275" x2="475" y1="341" y2="341" stroke="#000" stroke-width="2" marker-end="url(#arrowhead)" class="messageLine0" style="fill:none"/></g><g><text x="675" y="369" class="messageText" style="text-anchor:middle">StreamService-&gt;Tokio::spawn(HttpServiceHandlerResponse as Future)</text><line x1="275" x2="1075" y1="376" y2="376" stroke="#000" stroke-width="2" marker-end="url(#arrowhead)" class="messageLine1" style="stroke-dasharray:3,3;fill:none"/></g><g><text x="775" y="404" class="messageText" style="text-anchor:middle">poll()</text><line x1="1075" x2="475" y1="411" y2="411" stroke="#000" stroke-width="2" marker-end="url(#arrowhead)" class="messageLine0" style="fill:none"/></g><g><text x="675" y="464" class="messageText" style="text-anchor:middle">H2::Dispatcher::new(stream,services)</text><line x1="475" x2="875" y1="471" y2="471" stroke="#000" stroke-width="2" marker-end="url(#arrowhead)" class="messageLine0" style="fill:none"/></g><g><text x="475" y="499" class="messageText" style="text-anchor:middle">poll()</text><path stroke="#000" stroke-width="2" marker-end="url(#arrowhead)" d="M 475,506 C 535,496 535,536 475,526" class="messageLine0" style="fill:none"/></g><g><text x="675" y="584" class="messageText" style="text-anchor:middle">poll()</text><line x1="475" x2="875" y1="591" y2="591" stroke="#000" stroke-width="2" marker-end="url(#arrowhead)" class="messageLine0" style="fill:none"/></g><g><line x1="365" x2="885" y1="421" y2="421" class="loopLine"/><line x1="885" x2="885" y1="421" y2="601" class="loopLine"/><line x1="365" x2="885" y1="601" y2="601" class="loopLine"/><line x1="365" x2="365" y1="421" y2="601" class="loopLine"/><line x1="365" x2="885" y1="546" y2="546" class="loopLine" style="stroke-dasharray:3,3"/><polygon points="365 421 415 421 415 434 406.6 441 365 441" class="labelBox"/><text x="372.5" y="436" fill="#000" class="labelText"><tspan x="372.5" fill="#000">alt</tspan></text><text x="625" y="436" fill="#000" class="loopText" style="text-anchor:middle"><tspan x="625" fill="#000">[ State::H2Handshake ]</tspan></text></g><g><rect width="150" height="36" x="800" y="611" fill="#EDF2AE" stroke="#666" class="note" rx="0" ry="0"/><text x="796" y="635" fill="#000" class="noteText"><tspan x="816" fill="#000">requests loop</tspan></text></g><g><rect width="150" height="65" x="0" y="667" fill="#eaeaea" stroke="#666" class="actor" rx="3" ry="3"/><text x="75" y="699.5" alignment-baseline="central" class="actor" dominant-baseline="central" style="text-anchor:middle"><tspan x="75" dy="0">HttpServer</tspan></text></g><g><rect width="150" height="65" x="200" y="667" fill="#eaeaea" stroke="#666" class="actor" rx="3" ry="3"/><text x="275" y="699.5" alignment-baseline="central" class="actor" dominant-baseline="central" style="text-anchor:middle"><tspan x="275" dy="0">HttpServiceHandler</tspan></text></g><g><rect width="150" height="65" x="400" y="667" fill="#eaeaea" stroke="#666" class="actor" rx="3" ry="3"/><text x="475" y="699.5" alignment-baseline="central" class="actor" dominant-baseline="central" style="text-anchor:middle"><tspan x="475" dy="0">HSHR</tspan></text></g><g><rect width="150" height="65" x="600" y="667" fill="#eaeaea" stroke="#666" class="actor" rx="3" ry="3"/><text x="675" y="699.5" alignment-baseline="central" class="actor" dominant-baseline="central" style="text-anchor:middle"><tspan x="675" dy="0">State</tspan></text></g><g><rect width="150" height="65" x="800" y="667" fill="#eaeaea" stroke="#666" class="actor" rx="3" ry="3"/><text x="875" y="699.5" alignment-baseline="central" class="actor" dominant-baseline="central" style="text-anchor:middle"><tspan x="875" dy="0">Dispatcher</tspan></text></g><g><rect width="150" height="65" x="1000" y="667" fill="#eaeaea" stroke="#666" class="actor" rx="3" ry="3"/><text x="1075" y="699.5" alignment-baseline="central" class="actor" dominant-baseline="central" style="text-anchor:middle"><tspan x="1075" dy="0">Tokio</tspan></text></g></svg>