<svg xmlns="http://www.w3.org/2000/svg" id="mermaid-1579870260436" width="100%" height="100%" viewBox="-50 -10 1050 884" style="max-width:1050px"><style>#mermaid-1579870260436 .actor{stroke:#999;fill:#eee}#mermaid-1579870260436 text.actor{fill:#333;stroke:none}#mermaid-1579870260436 .actor-line{stroke:#666}#mermaid-1579870260436 .messageLine0{marker-end:&quot;url(#arrowhead)&quot;}#mermaid-1579870260436 .messageLine0,#mermaid-1579870260436 .messageLine1{stroke-width:1.5;stroke-dasharray:&quot;2 2&quot;;stroke:#333}#mermaid-1579870260436 #arrowhead{fill:#333}#mermaid-1579870260436 #crosshead path{fill:#333!important;stroke:#333!important}#mermaid-1579870260436 .messageText{fill:#333;stroke:none}#mermaid-1579870260436 .labelBox{stroke:#999;fill:#eee}#mermaid-1579870260436 .labelText,#mermaid-1579870260436 .loopText{fill:#fff;stroke:none}#mermaid-1579870260436 .loopLine{stroke-width:2;stroke-dasharray:&quot;2 2&quot;;marker-end:&quot;url(#arrowhead)&quot;;stroke:#999}#mermaid-1579870260436 .note{stroke:#770;fill:#ffa}#mermaid-1579870260436 .noteText{fill:#000;stroke:none;font-family:trebuchet ms,verdana,arial;font-size:14px}</style><style>#mermaid-1579870260436{color:#000;font:400 16px &quot;Times New Roman&quot;}</style><g><line id="actor0" x1="75" x2="75" y1="5" y2="873" stroke="#999" stroke-width=".5" class="actor-line"/><rect width="150" height="65" x="0" y="0" fill="#eaeaea" stroke="#666" class="actor" rx="3" ry="3"/><text x="75" y="32.5" alignment-baseline="central" class="actor" dominant-baseline="central" style="text-anchor:middle"><tspan x="75" dy="0">WorkerClient</tspan></text></g><g><line id="actor1" x1="275" x2="275" y1="5" y2="873" stroke="#999" stroke-width=".5" class="actor-line"/><rect width="150" height="65" x="200" y="0" fill="#eaeaea" stroke="#666" class="actor" rx="3" ry="3"/><text x="275" y="32.5" alignment-baseline="central" class="actor" dominant-baseline="central" style="text-anchor:middle"><tspan x="275" dy="0">Worker</tspan></text></g><g><line id="actor2" x1="475" x2="475" y1="5" y2="873" stroke="#999" stroke-width=".5" class="actor-line"/><rect width="150" height="65" x="400" y="0" fill="#eaeaea" stroke="#666" class="actor" rx="3" ry="3"/><text x="475" y="32.5" alignment-baseline="central" class="actor" dominant-baseline="central" style="text-anchor:middle"><tspan x="475" dy="0">StreamService</tspan></text></g><g><line id="actor3" x1="675" x2="675" y1="5" y2="873" stroke="#999" stroke-width=".5" class="actor-line"/><rect width="150" height="65" x="600" y="0" fill="#eaeaea" stroke="#666" class="actor" rx="3" ry="3"/><text x="675" y="32.5" alignment-baseline="central" class="actor" dominant-baseline="central" style="text-anchor:middle"><tspan x="675" dy="0">HttpServiceHandler</tspan></text></g><g><line id="actor4" x1="875" x2="875" y1="5" y2="873" stroke="#999" stroke-width=".5" class="actor-line"/><rect width="150" height="65" x="800" y="0" fill="#eaeaea" stroke="#666" class="actor" rx="3" ry="3"/><text x="875" y="32.5" alignment-baseline="central" class="actor" dominant-baseline="central" style="text-anchor:middle"><tspan x="875" dy="0">Tokio</tspan></text></g><defs><marker id="arrowhead" markerHeight="4" markerWidth="6" orient="auto" refX="5" refY="2"><path d="M 0,0 V 4 L6,2 Z"/></marker></defs><defs><marker id="crosshead" markerHeight="8" markerWidth="15" orient="auto" refX="16" refY="4"><path fill="#000" stroke="#000" stroke-width="1" d="M 9,2 V 6 L16,4 Z" style="stroke-dasharray:0,0"/><path fill="none" stroke="#000" stroke-width="1" d="M 0,1 L 6,7 M 6,1 L 0,7" style="stroke-dasharray:0,0"/></marker></defs><g><rect width="150" height="36" x="400" y="75" fill="#EDF2AE" stroke="#666" class="note" rx="0" ry="0"/><text x="396" y="99" fill="#000" class="noteText"><tspan x="416" fill="#000">(token, web::App)</tspan></text></g><g><text x="575" y="139" class="messageText" style="text-anchor:middle">poll()</text><line x1="875" x2="275" y1="146" y2="146" stroke="#000" stroke-width="2" marker-end="url(#arrowhead)" class="messageLine1" style="stroke-dasharray:3,3;fill:none"/></g><g><text x="175" y="224" class="messageText" style="text-anchor:middle">rx.poll_next()</text><line x1="275" x2="75" y1="231" y2="231" stroke="#000" stroke-width="2" marker-end="url(#arrowhead)" class="messageLine0" style="fill:none"/></g><g><text x="175" y="259" class="messageText" style="text-anchor:middle">WorkerCommand(Conn)</text><line x1="75" x2="275" y1="266" y2="266" stroke="#000" stroke-width="2" marker-end="url(#arrowhead)" class="messageLine0" style="fill:none"/></g><g><text x="275" y="294" class="messageText" style="text-anchor:middle">check_readiness()</text><path stroke="#000" stroke-width="2" marker-end="url(#arrowhead)" d="M 275,301 C 335,291 335,331 275,321" class="messageLine0" style="fill:none"/></g><g><rect width="250" height="36" x="250" y="366" fill="#EDF2AE" stroke="#666" class="note" rx="0" ry="0"/><text x="246" y="390" fill="#000" class="noteText"><tspan x="266" fill="#000">Worker::services[Conn.token]</tspan></text></g><g><text x="375" y="430" class="messageText" style="text-anchor:middle">call(ServerMessage::Connect(stream))</text><line x1="275" x2="475" y1="437" y2="437" stroke="#000" stroke-width="2" marker-end="url(#arrowhead)" class="messageLine1" style="stroke-dasharray:3,3;fill:none"/></g><g><text x="575" y="465" class="messageText" style="text-anchor:middle">call(stream)</text><line x1="475" x2="675" y1="472" y2="472" stroke="#000" stroke-width="2" marker-end="url(#arrowhead)" class="messageLine0" style="fill:none"/></g><g><text x="575" y="500" class="messageText" style="text-anchor:middle">HttpServiceHandlerResponse as Future</text><line x1="675" x2="475" y1="507" y2="507" stroke="#000" stroke-width="2" marker-end="url(#arrowhead)" class="messageLine0" style="fill:none"/></g><g><text x="675" y="535" class="messageText" style="text-anchor:middle">spawn(HttpServiceHandlerResponse)</text><line x1="475" x2="875" y1="542" y2="542" stroke="#000" stroke-width="2" marker-end="url(#arrowhead)" class="messageLine0" style="fill:none"/></g><g><text x="275" y="590" class="messageText" style="text-anchor:middle">WorkerState::Unavailable</text><path stroke="#000" stroke-width="2" marker-end="url(#arrowhead)" d="M 275,597 C 335,587 335,627 275,617" class="messageLine1" style="stroke-dasharray:3,3;fill:none"/></g><g><text x="275" y="675" class="messageText" style="text-anchor:middle">WorkerState::Restarting</text><path stroke="#000" stroke-width="2" marker-end="url(#arrowhead)" d="M 275,682 C 335,672 335,712 275,702" class="messageLine1" style="stroke-dasharray:3,3;fill:none"/></g><g><line x1="165" x2="885" y1="341" y2="341" class="loopLine"/><line x1="885" x2="885" y1="341" y2="722" class="loopLine"/><line x1="165" x2="885" y1="722" y2="722" class="loopLine"/><line x1="165" x2="165" y1="341" y2="722" class="loopLine"/><line x1="165" x2="885" y1="552" y2="552" class="loopLine" style="stroke-dasharray:3,3"/><line x1="165" x2="885" y1="637" y2="637" class="loopLine" style="stroke-dasharray:3,3"/><polygon points="165 341 215 341 215 354 206.6 361 165 361" class="labelBox"/><text x="172.5" y="356" fill="#000" class="labelText"><tspan x="172.5" fill="#000">alt</tspan></text><text x="525" y="356" fill="#000" class="loopText" style="text-anchor:middle"><tspan x="525" fill="#000">[ check_readiness() -&gt; Ok(true) ]</tspan></text><text x="525" y="567" fill="#000" class="loopText" style="text-anchor:middle"><tspan x="525" fill="#000">[ check_readiness() -&gt; Ok(false) ]</tspan></text><text x="525" y="652" fill="#000" class="loopText" style="text-anchor:middle"><tspan x="525" fill="#000">[ check_readiness() -&gt; Err(token,idx) ]</tspan></text></g><g><line x1="65" x2="895" y1="181" y2="181" class="loopLine"/><line x1="895" x2="895" y1="181" y2="732" class="loopLine"/><line x1="65" x2="895" y1="732" y2="732" class="loopLine"/><line x1="65" x2="65" y1="181" y2="732" class="loopLine"/><polygon points="65 181 115 181 115 194 106.6 201 65 201" class="labelBox"/><text x="72.5" y="196" fill="#000" class="labelText"><tspan x="72.5" fill="#000">loop</tspan></text><text x="480" y="196" fill="#000" class="loopText" style="text-anchor:middle"><tspan x="480" fill="#000">[ ]</tspan></text></g><g><line x1="55" x2="905" y1="156" y2="156" class="loopLine"/><line x1="905" x2="905" y1="156" y2="742" class="loopLine"/><line x1="55" x2="905" y1="742" y2="742" class="loopLine"/><line x1="55" x2="55" y1="156" y2="742" class="loopLine"/><polygon points="55 156 105 156 105 169 96.6 176 55 176" class="labelBox"/><text x="62.5" y="171" fill="#000" class="labelText"><tspan x="62.5" fill="#000">alt</tspan></text><text x="480" y="171" fill="#000" class="loopText" style="text-anchor:middle"><tspan x="480" fill="#000">[ WorkerState::Available ]</tspan></text></g><g><rect width="150" height="36" x="600" y="752" fill="#EDF2AE" stroke="#666" class="note" rx="0" ry="0"/><text x="596" y="776" fill="#000" class="noteText"><tspan x="616" fill="#000">process connection</tspan></text></g><g><rect width="150" height="65" x="0" y="808" fill="#eaeaea" stroke="#666" class="actor" rx="3" ry="3"/><text x="75" y="840.5" alignment-baseline="central" class="actor" dominant-baseline="central" style="text-anchor:middle"><tspan x="75" dy="0">WorkerClient</tspan></text></g><g><rect width="150" height="65" x="200" y="808" fill="#eaeaea" stroke="#666" class="actor" rx="3" ry="3"/><text x="275" y="840.5" alignment-baseline="central" class="actor" dominant-baseline="central" style="text-anchor:middle"><tspan x="275" dy="0">Worker</tspan></text></g><g><rect width="150" height="65" x="400" y="808" fill="#eaeaea" stroke="#666" class="actor" rx="3" ry="3"/><text x="475" y="840.5" alignment-baseline="central" class="actor" dominant-baseline="central" style="text-anchor:middle"><tspan x="475" dy="0">StreamService</tspan></text></g><g><rect width="150" height="65" x="600" y="808" fill="#eaeaea" stroke="#666" class="actor" rx="3" ry="3"/><text x="675" y="840.5" alignment-baseline="central" class="actor" dominant-baseline="central" style="text-anchor:middle"><tspan x="675" dy="0">HttpServiceHandler</tspan></text></g><g><rect width="150" height="65" x="800" y="808" fill="#eaeaea" stroke="#666" class="actor" rx="3" ry="3"/><text x="875" y="840.5" alignment-baseline="central" class="actor" dominant-baseline="central" style="text-anchor:middle"><tspan x="875" dy="0">Tokio</tspan></text></g></svg>