<svg xmlns="http://www.w3.org/2000/svg" id="mermaid-1579866914290" width="100%" height="100%" viewBox="-50 -10 1090 766" style="max-width:1090px"><style>#mermaid-1579866914290 .actor{stroke:#999;fill:#eee}#mermaid-1579866914290 text.actor{fill:#333;stroke:none}#mermaid-1579866914290 .actor-line{stroke:#666}#mermaid-1579866914290 .messageLine0{marker-end:&quot;url(#arrowhead)&quot;}#mermaid-1579866914290 .messageLine0,#mermaid-1579866914290 .messageLine1{stroke-width:1.5;stroke-dasharray:&quot;2 2&quot;;stroke:#333}#mermaid-1579866914290 #arrowhead{fill:#333}#mermaid-1579866914290 #crosshead path{fill:#333!important;stroke:#333!important}#mermaid-1579866914290 .messageText{fill:#333;stroke:none}#mermaid-1579866914290 .labelBox{stroke:#999;fill:#eee}#mermaid-1579866914290 .labelText,#mermaid-1579866914290 .loopText{fill:#fff;stroke:none}#mermaid-1579866914290 .loopLine{stroke-width:2;stroke-dasharray:&quot;2 2&quot;;marker-end:&quot;url(#arrowhead)&quot;;stroke:#999}#mermaid-1579866914290 .note{stroke:#770;fill:#ffa}#mermaid-1579866914290 .noteText{fill:#000;stroke:none;font-family:trebuchet ms,verdana,arial;font-size:14px}</style><style>#mermaid-1579866914290{color:#000;font:400 16px &quot;Times New Roman&quot;}</style><g><line id="actor0" x1="75" x2="75" y1="5" y2="755" stroke="#999" stroke-width=".5" class="actor-line"/><rect width="150" height="65" x="0" y="0" fill="#eaeaea" stroke="#666" class="actor" rx="3" ry="3"/><text x="75" y="32.5" alignment-baseline="central" class="actor" dominant-baseline="central" style="text-anchor:middle"><tspan x="75" dy="0">ServerBuilder</tspan></text></g><g><line id="actor1" x1="275" x2="275" y1="5" y2="755" stroke="#999" stroke-width=".5" class="actor-line"/><rect width="150" height="65" x="200" y="0" fill="#eaeaea" stroke="#666" class="actor" rx="3" ry="3"/><text x="275" y="32.5" alignment-baseline="central" class="actor" dominant-baseline="central" style="text-anchor:middle"><tspan x="275" dy="0">Accept</tspan></text></g><g><line id="actor2" x1="475" x2="475" y1="5" y2="755" stroke="#999" stroke-width=".5" class="actor-line"/><rect width="150" height="65" x="400" y="0" fill="#eaeaea" stroke="#666" class="actor" rx="3" ry="3"/><text x="475" y="32.5" alignment-baseline="central" class="actor" dominant-baseline="central" style="text-anchor:middle"><tspan x="475" dy="0">WorkerClient</tspan></text></g><g><line id="actor3" x1="675" x2="675" y1="5" y2="755" stroke="#999" stroke-width=".5" class="actor-line"/><rect width="150" height="65" x="600" y="0" fill="#eaeaea" stroke="#666" class="actor" rx="3" ry="3"/><text x="675" y="32.5" alignment-baseline="central" class="actor" dominant-baseline="central" style="text-anchor:middle"><tspan x="675" dy="0">Worker</tspan></text></g><g><line id="actor4" x1="875" x2="875" y1="5" y2="755" stroke="#999" stroke-width=".5" class="actor-line"/><rect width="150" height="65" x="800" y="0" fill="#eaeaea" stroke="#666" class="actor" rx="3" ry="3"/><text x="875" y="32.5" alignment-baseline="central" class="actor" dominant-baseline="central" style="text-anchor:middle"><tspan x="875" dy="0">Dispatcher</tspan></text></g><defs><marker id="arrowhead" markerHeight="4" markerWidth="6" orient="auto" refX="5" refY="2"><path d="M 0,0 V 4 L6,2 Z"/></marker></defs><defs><marker id="crosshead" markerHeight="8" markerWidth="15" orient="auto" refX="16" refY="4"><path fill="#000" stroke="#000" stroke-width="1" d="M 9,2 V 6 L16,4 Z" style="stroke-dasharray:0,0"/><path fill="none" stroke="#000" stroke-width="1" d="M 0,1 L 6,7 M 6,1 L 0,7" style="stroke-dasharray:0,0"/></marker></defs><g><text x="175" y="93" class="messageText" style="text-anchor:middle">start(socks, workers)</text><line x1="75" x2="275" y1="100" y2="100" stroke="#000" stroke-width="2" marker-end="url(#arrowhead)" class="messageLine0" style="fill:none"/></g><g><rect width="150" height="36" x="200" y="110" fill="#EDF2AE" stroke="#666" class="note" rx="0" ry="0"/><text x="196" y="134" fill="#000" class="noteText"><tspan x="216" fill="#000">accept Connections</tspan></text></g><g><rect width="10" height="154" x="270" y="173" fill="#f4f4f4" stroke="#666" rx="0" ry="0"/></g><g><text x="280" y="199" class="messageText" style="text-anchor:middle">poll() --&gt; Conn</text><path stroke="#000" stroke-width="2" marker-end="url(#arrowhead)" d="M 280,206 C 340,196 340,236 280,226" class="messageLine1" style="stroke-dasharray:3,3;fill:none"/></g><g><rect width="150" height="36" x="200" y="246" fill="#EDF2AE" stroke="#666" class="note" rx="0" ry="0"/><text x="196" y="270" fill="#000" class="noteText"><tspan x="216" fill="#000">backpressure logic</tspan></text></g><g><text x="377.5" y="310" class="messageText" style="text-anchor:middle">send(Conn)</text><line x1="280" x2="475" y1="317" y2="317" stroke="#000" stroke-width="2" marker-end="url(#arrowhead)" class="messageLine0" style="fill:none"/></g><g><line x1="170" x2="485" y1="156" y2="156" class="loopLine"/><line x1="485" x2="485" y1="156" y2="327" class="loopLine"/><line x1="170" x2="485" y1="327" y2="327" class="loopLine"/><line x1="170" x2="170" y1="156" y2="327" class="loopLine"/><polygon points="170 156 220 156 220 169 211.6 176 170 176" class="labelBox"/><text x="177.5" y="171" fill="#000" class="labelText"><tspan x="177.5" fill="#000">loop</tspan></text><text x="327.5" y="171" fill="#000" class="loopText" style="text-anchor:middle"><tspan x="327.5" fill="#000">[ poll connections on sockets ]</tspan></text></g><g><rect width="150" height="36" x="600" y="337" fill="#EDF2AE" stroke="#666" class="note" rx="0" ry="0"/><text x="596" y="361" fill="#000" class="noteText"><tspan x="616" fill="#000">process Connections</tspan></text></g><g><rect width="10" height="124" x="670" y="400" fill="#f4f4f4" stroke="#666" rx="0" ry="0"/></g><g><text x="572.5" y="426" class="messageText" style="text-anchor:middle">rx.poll_next()</text><line x1="670" x2="475" y1="433" y2="433" stroke="#000" stroke-width="2" marker-end="url(#arrowhead)" class="messageLine0" style="fill:none"/></g><g><rect width="150" height="36" x="600" y="443" fill="#EDF2AE" stroke="#666" class="note" rx="0" ry="0"/><text x="596" y="467" fill="#000" class="noteText"><tspan x="616" fill="#000">Service factories</tspan></text></g><g><text x="777.5" y="507" class="messageText" style="text-anchor:middle">new(stream)</text><line x1="680" x2="875" y1="514" y2="514" stroke="#000" stroke-width="2" marker-end="url(#arrowhead)" class="messageLine1" style="stroke-dasharray:3,3;fill:none"/></g><g><line x1="465" x2="885" y1="383" y2="383" class="loopLine"/><line x1="885" x2="885" y1="383" y2="524" class="loopLine"/><line x1="465" x2="885" y1="524" y2="524" class="loopLine"/><line x1="465" x2="465" y1="383" y2="524" class="loopLine"/><polygon points="465 383 515 383 515 396 506.6 403 465 403" class="labelBox"/><text x="472.5" y="398" fill="#000" class="labelText"><tspan x="472.5" fill="#000">loop</tspan></text><text x="675" y="398" fill="#000" class="loopText" style="text-anchor:middle"><tspan x="675" fill="#000">[ Worker as Future::poll ]</tspan></text></g><g><rect width="150" height="36" x="800" y="534" fill="#EDF2AE" stroke="#666" class="note" rx="0" ry="0"/><text x="796" y="558" fill="#000" class="noteText"><tspan x="816" fill="#000">process Requests</tspan></text></g><g><rect width="10" height="73" x="870" y="597" fill="#f4f4f4" stroke="#666" rx="0" ry="0"/></g><g><text x="880" y="623" class="messageText" style="text-anchor:middle">Dispatch requests</text><path stroke="#000" stroke-width="2" marker-end="url(#arrowhead)" d="M 880,630 C 940,620 940,660 880,650" class="messageLine1" style="stroke-dasharray:3,3;fill:none"/></g><g><line x1="770" x2="990" y1="580" y2="580" class="loopLine"/><line x1="990" x2="990" y1="580" y2="670" class="loopLine"/><line x1="770" x2="990" y1="670" y2="670" class="loopLine"/><line x1="770" x2="770" y1="580" y2="670" class="loopLine"/><polygon points="770 580 820 580 820 593 811.6 600 770 600" class="labelBox"/><text x="777.5" y="595" fill="#000" class="labelText"><tspan x="777.5" fill="#000">loop</tspan></text><text x="880" y="595" fill="#000" class="loopText" style="text-anchor:middle"><tspan x="880" fill="#000">[ Dispatcher::poll ]</tspan></text></g><g><rect width="150" height="65" x="0" y="690" fill="#eaeaea" stroke="#666" class="actor" rx="3" ry="3"/><text x="75" y="722.5" alignment-baseline="central" class="actor" dominant-baseline="central" style="text-anchor:middle"><tspan x="75" dy="0">ServerBuilder</tspan></text></g><g><rect width="150" height="65" x="200" y="690" fill="#eaeaea" stroke="#666" class="actor" rx="3" ry="3"/><text x="275" y="722.5" alignment-baseline="central" class="actor" dominant-baseline="central" style="text-anchor:middle"><tspan x="275" dy="0">Accept</tspan></text></g><g><rect width="150" height="65" x="400" y="690" fill="#eaeaea" stroke="#666" class="actor" rx="3" ry="3"/><text x="475" y="722.5" alignment-baseline="central" class="actor" dominant-baseline="central" style="text-anchor:middle"><tspan x="475" dy="0">WorkerClient</tspan></text></g><g><rect width="150" height="65" x="600" y="690" fill="#eaeaea" stroke="#666" class="actor" rx="3" ry="3"/><text x="675" y="722.5" alignment-baseline="central" class="actor" dominant-baseline="central" style="text-anchor:middle"><tspan x="675" dy="0">Worker</tspan></text></g><g><rect width="150" height="65" x="800" y="690" fill="#eaeaea" stroke="#666" class="actor" rx="3" ry="3"/><text x="875" y="722.5" alignment-baseline="central" class="actor" dominant-baseline="central" style="text-anchor:middle"><tspan x="875" dy="0">Dispatcher</tspan></text></g></svg>