<svg xmlns="http://www.w3.org/2000/svg" id="mermaid-1579871632586" width="100%" height="100%" viewBox="-50 -10 1450 732" style="max-width:1450px"><style>#mermaid-1579871632586 .actor{stroke:#999;fill:#eee}#mermaid-1579871632586 text.actor{fill:#333;stroke:none}#mermaid-1579871632586 .actor-line{stroke:#666}#mermaid-1579871632586 .messageLine0{marker-end:&quot;url(#arrowhead)&quot;}#mermaid-1579871632586 .messageLine0,#mermaid-1579871632586 .messageLine1{stroke-width:1.5;stroke-dasharray:&quot;2 2&quot;;stroke:#333}#mermaid-1579871632586 #arrowhead{fill:#333}#mermaid-1579871632586 #crosshead path{fill:#333!important;stroke:#333!important}#mermaid-1579871632586 .messageText{fill:#333;stroke:none}#mermaid-1579871632586 .labelBox{stroke:#999;fill:#eee}#mermaid-1579871632586 .labelText,#mermaid-1579871632586 .loopText{fill:#fff;stroke:none}#mermaid-1579871632586 .loopLine{stroke-width:2;stroke-dasharray:&quot;2 2&quot;;marker-end:&quot;url(#arrowhead)&quot;;stroke:#999}#mermaid-1579871632586 .note{stroke:#770;fill:#ffa}#mermaid-1579871632586 .noteText{fill:#000;stroke:none;font-family:trebuchet ms,verdana,arial;font-size:14px}</style><style>#mermaid-1579871632586{color:#000;font:400 16px &quot;Times New Roman&quot;}</style><g><line id="actor0" x1="75" x2="75" y1="5" y2="721" stroke="#999" stroke-width=".5" class="actor-line"/><rect width="150" height="65" x="0" y="0" fill="#eaeaea" stroke="#666" class="actor" rx="3" ry="3"/><text x="75" y="32.5" alignment-baseline="central" class="actor" dominant-baseline="central" style="text-anchor:middle"><tspan x="75" dy="0">HttpServer</tspan></text></g><g><line id="actor1" x1="275" x2="275" y1="5" y2="721" stroke="#999" stroke-width=".5" class="actor-line"/><rect width="150" height="65" x="200" y="0" fill="#eaeaea" stroke="#666" class="actor" rx="3" ry="3"/><text x="275" y="32.5" alignment-baseline="central" class="actor" dominant-baseline="central" style="text-anchor:middle"><tspan x="275" dy="0">ServerBuilder</tspan></text></g><g><line id="actor2" x1="475" x2="475" y1="5" y2="721" stroke="#999" stroke-width=".5" class="actor-line"/><rect width="150" height="65" x="400" y="0" fill="#eaeaea" stroke="#666" class="actor" rx="3" ry="3"/><text x="475" y="32.5" alignment-baseline="central" class="actor" dominant-baseline="central" style="text-anchor:middle"><tspan x="475" dy="0">Worker</tspan></text></g><g><line id="actor3" x1="675" x2="675" y1="5" y2="721" stroke="#999" stroke-width=".5" class="actor-line"/><rect width="150" height="65" x="600" y="0" fill="#eaeaea" stroke="#666" class="actor" rx="3" ry="3"/><text x="675" y="32.5" alignment-baseline="central" class="actor" dominant-baseline="central" style="text-anchor:middle"><tspan x="675" dy="0">StreamNewService</tspan></text></g><g><line id="actor4" x1="875" x2="875" y1="5" y2="721" stroke="#999" stroke-width=".5" class="actor-line"/><rect width="150" height="65" x="800" y="0" fill="#eaeaea" stroke="#666" class="actor" rx="3" ry="3"/><text x="875" y="32.5" alignment-baseline="central" class="actor" dominant-baseline="central" style="text-anchor:middle"><tspan x="875" dy="0">HttpService</tspan></text></g><g><line id="actor5" x1="1075" x2="1075" y1="5" y2="721" stroke="#999" stroke-width=".5" class="actor-line"/><rect width="150" height="65" x="1000" y="0" fill="#eaeaea" stroke="#666" class="actor" rx="3" ry="3"/><text x="1075" y="32.5" alignment-baseline="central" class="actor" dominant-baseline="central" style="text-anchor:middle"><tspan x="1075" dy="0">HttpServiceResponse</tspan></text></g><g><line id="actor6" x1="1275" x2="1275" y1="5" y2="721" stroke="#999" stroke-width=".5" class="actor-line"/><rect width="150" height="65" x="1200" y="0" fill="#eaeaea" stroke="#666" class="actor" rx="3" ry="3"/><text x="1275" y="32.5" alignment-baseline="central" class="actor" dominant-baseline="central" style="text-anchor:middle"><tspan x="1275" dy="0">Tokio</tspan></text></g><defs><marker id="arrowhead" markerHeight="4" markerWidth="6" orient="auto" refX="5" refY="2"><path d="M 0,0 V 4 L6,2 Z"/></marker></defs><defs><marker id="crosshead" markerHeight="8" markerWidth="15" orient="auto" refX="16" refY="4"><path fill="#000" stroke="#000" stroke-width="1" d="M 9,2 V 6 L16,4 Z" style="stroke-dasharray:0,0"/><path fill="none" stroke="#000" stroke-width="1" d="M 0,1 L 6,7 M 6,1 L 0,7" style="stroke-dasharray:0,0"/></marker></defs><g><text x="475" y="93" class="messageText" style="text-anchor:middle">build...</text><line x1="75" x2="875" y1="100" y2="100" stroke="#000" stroke-width="2" marker-end="url(#arrowhead)" class="messageLine1" style="stroke-dasharray:3,3;fill:none"/></g><g><text x="175" y="128" class="messageText" style="text-anchor:middle">listen(addr,Fn-&gt;HttpService)</text><line x1="75" x2="275" y1="135" y2="135" stroke="#000" stroke-width="2" marker-end="url(#arrowhead)" class="messageLine0" style="fill:none"/></g><g><text x="475" y="163" class="messageText" style="text-anchor:middle">create(addr,Fn-&gt;HttpService)</text><line x1="275" x2="675" y1="170" y2="170" stroke="#000" stroke-width="2" marker-end="url(#arrowhead)" class="messageLine0" style="fill:none"/></g><g><text x="175" y="198" class="messageText" style="text-anchor:middle">start()</text><line x1="75" x2="275" y1="205" y2="205" stroke="#000" stroke-width="2" marker-end="url(#arrowhead)" class="messageLine0" style="fill:none"/></g><g><text x="375" y="233" class="messageText" style="text-anchor:middle">start(StreamNewService)</text><line x1="275" x2="475" y1="240" y2="240" stroke="#000" stroke-width="2" marker-end="url(#arrowhead)" class="messageLine0" style="fill:none"/></g><g><text x="575" y="268" class="messageText" style="text-anchor:middle">InternalServiceFactory::create()</text><line x1="475" x2="675" y1="275" y2="275" stroke="#000" stroke-width="2" marker-end="url(#arrowhead)" class="messageLine0" style="fill:none"/></g><g><text x="775" y="303" class="messageText" style="text-anchor:middle">new_service()</text><line x1="675" x2="875" y1="310" y2="310" stroke="#000" stroke-width="2" marker-end="url(#arrowhead)" class="messageLine0" style="fill:none"/></g><g><text x="975" y="338" class="messageText" style="text-anchor:middle">HttpServiceResponse::new()</text><line x1="875" x2="1075" y1="345" y2="345" stroke="#000" stroke-width="2" marker-end="url(#arrowhead)" class="messageLine0" style="fill:none"/></g><g><text x="775" y="373" class="messageText" style="text-anchor:middle">HttpServiceResponse as Future</text><line x1="875" x2="675" y1="380" y2="380" stroke="#000" stroke-width="2" marker-end="url(#arrowhead)" class="messageLine0" style="fill:none"/></g><g><text x="575" y="408" class="messageText" style="text-anchor:middle">StreamService(HttpServiceResponse) as Future</text><line x1="675" x2="475" y1="415" y2="415" stroke="#000" stroke-width="2" marker-end="url(#arrowhead)" class="messageLine0" style="fill:none"/></g><g><text x="875" y="443" class="messageText" style="text-anchor:middle">spawn(StreamService(HttpServiceResponse)).map(Worker))</text><line x1="475" x2="1275" y1="450" y2="450" stroke="#000" stroke-width="2" marker-end="url(#arrowhead)" class="messageLine1" style="stroke-dasharray:3,3;fill:none"/></g><g><text x="1175" y="478" class="messageText" style="text-anchor:middle">poll()</text><line x1="1275" x2="1075" y1="485" y2="485" stroke="#000" stroke-width="2" marker-end="url(#arrowhead)" class="messageLine1" style="stroke-dasharray:3,3;fill:none"/></g><g><text x="1175" y="513" class="messageText" style="text-anchor:middle">Ready(Worker(HttpServiceHandler))</text><line x1="1075" x2="1275" y1="520" y2="520" stroke="#000" stroke-width="2" marker-end="url(#arrowhead)" class="messageLine1" style="stroke-dasharray:3,3;fill:none"/></g><g><text x="875" y="573" class="messageText" style="text-anchor:middle">poll-&gt;Pending...</text><line x1="1275" x2="475" y1="580" y2="580" stroke="#000" stroke-width="2" marker-end="url(#arrowhead)" class="messageLine1" style="stroke-dasharray:3,3;fill:none"/></g><g><rect width="10" height="44" x="470" y="582" fill="#f4f4f4" stroke="#666" rx="0" ry="0"/></g><g><rect width="150" height="36" x="400" y="590" fill="#EDF2AE" stroke="#666" class="note" rx="0" ry="0"/><text x="396" y="614" fill="#000" class="noteText"><tspan x="416" fill="#000">pull messages</tspan></text></g><g><line x1="390" x2="1285" y1="530" y2="530" class="loopLine"/><line x1="1285" x2="1285" y1="530" y2="636" class="loopLine"/><line x1="390" x2="1285" y1="636" y2="636" class="loopLine"/><line x1="390" x2="390" y1="530" y2="636" class="loopLine"/><polygon points="390 530 440 530 440 543 431.6 550 390 550" class="labelBox"/><text x="397.5" y="545" fill="#000" class="labelText"><tspan x="397.5" fill="#000">loop</tspan></text><text x="837.5" y="545" fill="#000" class="loopText" style="text-anchor:middle"><tspan x="837.5" fill="#000">[ Worker process messages ]</tspan></text></g><g><rect width="150" height="65" x="0" y="656" fill="#eaeaea" stroke="#666" class="actor" rx="3" ry="3"/><text x="75" y="688.5" alignment-baseline="central" class="actor" dominant-baseline="central" style="text-anchor:middle"><tspan x="75" dy="0">HttpServer</tspan></text></g><g><rect width="150" height="65" x="200" y="656" fill="#eaeaea" stroke="#666" class="actor" rx="3" ry="3"/><text x="275" y="688.5" alignment-baseline="central" class="actor" dominant-baseline="central" style="text-anchor:middle"><tspan x="275" dy="0">ServerBuilder</tspan></text></g><g><rect width="150" height="65" x="400" y="656" fill="#eaeaea" stroke="#666" class="actor" rx="3" ry="3"/><text x="475" y="688.5" alignment-baseline="central" class="actor" dominant-baseline="central" style="text-anchor:middle"><tspan x="475" dy="0">Worker</tspan></text></g><g><rect width="150" height="65" x="600" y="656" fill="#eaeaea" stroke="#666" class="actor" rx="3" ry="3"/><text x="675" y="688.5" alignment-baseline="central" class="actor" dominant-baseline="central" style="text-anchor:middle"><tspan x="675" dy="0">StreamNewService</tspan></text></g><g><rect width="150" height="65" x="800" y="656" fill="#eaeaea" stroke="#666" class="actor" rx="3" ry="3"/><text x="875" y="688.5" alignment-baseline="central" class="actor" dominant-baseline="central" style="text-anchor:middle"><tspan x="875" dy="0">HttpService</tspan></text></g><g><rect width="150" height="65" x="1000" y="656" fill="#eaeaea" stroke="#666" class="actor" rx="3" ry="3"/><text x="1075" y="688.5" alignment-baseline="central" class="actor" dominant-baseline="central" style="text-anchor:middle"><tspan x="1075" dy="0">HttpServiceResponse</tspan></text></g><g><rect width="150" height="65" x="1200" y="656" fill="#eaeaea" stroke="#666" class="actor" rx="3" ry="3"/><text x="1275" y="688.5" alignment-baseline="central" class="actor" dominant-baseline="central" style="text-anchor:middle"><tspan x="1275" dy="0">Tokio</tspan></text></g></svg>